<svg width="72" height="38" viewBox="0 0 72 38" fill="none" xmlns="http://www.w3.org/2000/svg">
<path d="M56.0826 35.6317C59.3157 33.1075 61.6735 29.9892 63.3114 26.7285C65.3883 27.3387 67.4678 28.3468 69.4162 29.8656C66.4534 33.1774 61.3283 35.3602 56.0826 35.6317ZM52.7586 24.8172C54.0834 22.6586 55.1138 20.0081 55.5741 16.6989C58.2879 15.7849 61.2774 15.414 64.5613 15.5806C64.3713 18.4059 63.6754 21.5645 62.3292 24.6425C58.9196 23.9167 55.5715 24.1183 52.7586 24.8172ZM45.7065 29.5995C45.1819 28.3844 44.5797 27.3038 43.908 26.3683C46.6004 22.1559 49.8441 19.1882 53.6954 17.4409C52.756 22.5134 50.1331 26.4516 45.7065 29.5995ZM41.6117 33.957C38.4483 32.6344 36.8451 30.4435 36.8451 27.4409C36.8451 26.9489 36.4464 26.5484 35.9566 26.5484C35.4641 26.5484 35.068 26.9489 35.068 27.4409C35.068 30.4301 33.4783 32.6183 30.3416 33.9409C28.8723 34.5618 27.3789 34.8495 26.4047 34.9812C26.9507 32.2769 28.8161 25.4651 33.9413 24.0511C34.5435 24.4059 35.2313 24.6102 35.9619 24.6129C35.9646 24.6129 35.9673 24.6129 35.9726 24.6129C35.9726 24.6129 35.9726 24.6129 35.9753 24.6129C35.9753 24.6129 35.978 24.6129 35.9807 24.6129C35.9834 24.6129 35.986 24.6129 35.9914 24.6129C36.7193 24.6102 37.4018 24.4086 38.0013 24.0565C43.1078 25.4866 44.9705 32.2823 45.5138 34.9839C44.5503 34.8548 43.081 34.5726 41.617 33.9597L41.6117 33.957ZM18.2125 17.4382C22.0637 19.1855 25.3074 22.1532 27.9998 26.3656C27.3281 27.3011 26.7259 28.3844 26.2013 29.5995C21.7747 26.4489 19.1519 22.5108 18.2125 17.4382ZM9.57861 24.6425C8.23242 21.5645 7.53657 18.4059 7.34655 15.5806C10.6304 15.414 13.6199 15.7849 16.331 16.6989C16.7913 20.0108 17.8217 22.6613 19.1465 24.8172C16.3337 24.1183 12.9883 23.9194 9.57861 24.6425ZM15.8225 35.6344C10.5769 35.3629 5.4517 33.1801 2.489 29.8683C4.44005 28.3468 6.51688 27.3387 8.59372 26.7312C10.2316 29.9919 12.5895 33.1102 15.8225 35.6344ZM18.4881 6C21.6195 6.76075 24.079 7.84677 25.9872 9.30914C26.0434 9.35215 26.105 9.38441 26.1665 9.41398C25.8454 14.3602 26.5332 19.4247 27.8178 22.8118C27.8178 22.879 27.8178 22.9462 27.8178 23.0134C25.0211 19.3952 21.7399 16.8521 17.9288 15.3602C17.6745 12.5726 17.8645 9.47312 18.4908 6.00269L18.4881 6ZM29.33 2.34409C31.3934 3.27151 33.1464 4.4086 34.6398 5.6828C31.083 9.31183 29.2122 13.7177 28.3772 17.8199C27.6064 13.1989 27.6011 7.11559 29.33 2.34409ZM42.5778 2.34409C44.3068 7.11559 44.3014 13.2016 43.5306 17.8199C42.6956 13.7177 40.8248 9.30914 37.268 5.6828C38.7614 4.41129 40.5144 3.27419 42.5778 2.34409ZM35.986 15.3253C35.986 15.3253 35.9807 15.3253 35.9753 15.3253H35.9673C35.9673 15.3253 35.9619 15.3253 35.9566 15.3253C33.6068 15.336 31.6959 17.414 31.6959 19.9677C31.6959 20.9704 31.9929 21.8978 32.4934 22.6559C31.4603 23.078 30.4995 23.7016 29.6217 24.5134C29.5923 23.9328 29.5789 23.3226 29.5949 22.6855C29.5949 22.6747 29.5949 22.6667 29.5949 22.6559C29.7181 17.8441 31.2784 11.6478 35.9486 6.90323C40.6188 11.6452 42.1791 17.8414 42.3022 22.6532C42.3022 22.664 42.3022 22.6774 42.3022 22.6882C42.3182 23.3253 42.3075 23.9328 42.2754 24.5134C41.4056 23.707 40.4555 23.0887 39.4331 22.6667C39.939 21.9059 40.2387 20.9731 40.2387 19.9651C40.2387 17.4113 38.3305 15.3333 35.978 15.3226L35.986 15.3253ZM35.97 22.8226C34.5943 22.8226 33.4756 21.5403 33.4756 19.9677C33.4756 18.3952 34.5943 17.1129 35.97 17.1129C37.3456 17.1129 38.4643 18.3952 38.4643 19.9677C38.4643 20.9301 38.0441 21.7823 37.4018 22.3011C37.3242 22.3414 37.2546 22.3925 37.1904 22.4543C36.8291 22.6882 36.4116 22.8253 35.9673 22.8253L35.97 22.8226ZM45.9179 9.30914C47.8261 7.84677 50.2857 6.76075 53.417 6C54.0433 9.46774 54.2333 12.5699 53.9764 15.3575C50.1653 16.8495 46.8841 19.3952 44.0873 23.0107C44.0873 22.9435 44.0873 22.8763 44.0846 22.8091C45.3693 19.4247 46.0571 14.3575 45.7386 9.41398C45.8002 9.3871 45.8617 9.35215 45.9179 9.30914ZM71.2548 29.0672C68.9826 27.121 66.5311 25.8495 64.0715 25.0941C65.5783 21.5538 66.2848 17.9301 66.3839 14.7742L66.4106 13.922L65.5649 13.8548C61.9893 13.5753 58.7349 13.8683 55.7749 14.7392C55.9622 11.8763 55.7561 8.57796 54.996 4.74731L54.8194 3.85753L53.9362 4.04839C50.4944 4.78763 47.7432 5.88441 45.5486 7.38172C45.2569 5.04032 44.7216 2.78226 43.8919 0.811828L43.5494 0L42.7357 0.330645C40.0407 1.42742 37.8059 2.8414 35.9512 4.44892C34.0965 2.8414 31.8618 1.42742 29.1667 0.330645L28.3531 0L28.0105 0.811828C27.1809 2.78226 26.6456 5.03763 26.3539 7.38172C24.1593 5.88441 21.4107 4.78763 17.9663 4.04839L17.0831 3.85753L16.9064 4.74731C16.1463 8.58064 15.9403 11.879 16.1276 14.7392C13.1676 13.8683 9.91047 13.5726 6.33756 13.8548L5.49184 13.922L5.51861 14.7742C5.61763 17.9301 6.32419 21.5538 7.83097 25.0941C5.37141 25.8495 2.91721 27.121 0.647673 29.0672L0 29.621L0.521885 30.2957C3.91816 34.6935 10.32 37.4516 16.8636 37.4516C17.4685 37.4516 18.076 37.4274 18.6808 37.379L21.4107 37.1613L19.0769 35.7258C15.0705 33.2607 12.2469 29.8898 10.3708 26.3011C14.2997 25.5591 18.1001 26.1371 20.9183 27.25C22.3795 28.9543 23.9987 30.2608 25.5376 31.3145C24.7026 33.7688 24.451 35.7688 24.4376 35.8683L24.3118 36.9032L25.3476 36.8683C28.4896 36.7661 33.845 35.4032 35.9486 31.2957C38.0522 35.4059 43.4048 36.7661 46.5495 36.8683L47.5879 36.9032L47.4622 35.8683C47.4488 35.7688 47.1972 33.7688 46.3649 31.3145C47.9038 30.2608 49.5256 28.9516 50.9815 27.25C53.7997 26.1371 57.6001 25.5591 61.529 26.3011C59.6529 29.8898 56.8293 33.2607 52.8229 35.7258L50.4891 37.1613L53.219 37.379C53.8238 37.4274 54.4313 37.4516 55.0362 37.4516C61.5772 37.4516 67.9816 34.6935 71.3779 30.2957L71.8998 29.621L71.2548 29.0672Z" fill="#F15F5C"/>
</svg>
